<?xml version="1.0" encoding="UTF-8" standalone="no"?>
<svg
   xmlns:dc="http://purl.org/dc/elements/1.1/"
   xmlns:cc="http://creativecommons.org/ns#"
   xmlns:rdf="http://www.w3.org/1999/02/22-rdf-syntax-ns#"
   xmlns:svg="http://www.w3.org/2000/svg"
   xmlns="http://www.w3.org/2000/svg"
   id="svg86"
   version="1.1"
   height="443.99799pt"
   width="501.79999pt"
   viewBox="0 0 501.79999 443.99799"
   style="isolation:isolate">
  <metadata
     id="metadata90">
    <rdf:RDF>
      <cc:Work
         rdf:about="">
        <dc:format>image/svg+xml</dc:format>
        <dc:type
           rdf:resource="http://purl.org/dc/dcmitype/StillImage" />
        <dc:title></dc:title>
      </cc:Work>
    </rdf:RDF>
  </metadata>
  <defs
     id="defs73">
    <clipPath
       id="_clipPath_ic4o5K64CVFs5W8A6f8tIzaRjAYeT5kq">
      <rect
         y="0"
         x="0"
         id="rect70"
         height="800"
         width="1000" />
    </clipPath>
  </defs>
  <g
     transform="translate(-249.1,-178.001)"
     id="g84"
     clip-path="url(#_clipPath_ic4o5K64CVFs5W8A6f8tIzaRjAYeT5kq)">
    <clipPath
       id="_clipPath_IBAIHbbfAUdDmyAVRPYQHPIafyk6VPHE">
      <path
         style="fill:#ffffff"
         id="path75"
         d="M 0,0 V 800 H 1000 V 0 Z" />
    </clipPath>
    <g
       id="g82"
       clip-path="url(#_clipPath_IBAIHbbfAUdDmyAVRPYQHPIafyk6VPHE)">
      <path
         style="fill:#373535"
         id="path78"
         d="m 249.101,547.739 c 0,0 -0.001,0 -0.001,10e-4 l 0.001,-10e-4 c 0,0 0,0 0,0 z" />
      <path
         style="fill:#373535"
         id="path80"
         d="m 606.104,292.68 -5.893,-7.06 c 3.897,-0.341 17.184,1.567 17.184,1.567 z M 528.901,178.001 c -122.607,0 -221.999,99.392 -221.999,221.999 0,16.521 1.82,32.615 5.244,48.107 112.857,-138.081 260.378,-158.978 260.378,-158.978 -133.256,32.109 -220.687,132.39 -255.031,178.76 0.167,0.521 0.335,1.043 0.507,1.563 48.856,-60.285 140.298,-150.507 262.119,-170.65 l 10.422,13.713 c 0,0 -1.74,-6.134 -6.714,-20.751 -6.712,-19.733 -24.411,-31.735 -24.411,-31.735 21.361,2.441 47.603,36.618 47.603,36.618 l 12.817,6.103 -9.155,-9.155 61.641,-33.566 -32.015,37.228 c -9.433,-6.713 -17.42,-8.544 -17.42,-8.544 17.089,6.103 54.504,34.591 61.878,73.728 2.828,15.006 38.449,74.457 39.669,82.391 1.222,7.934 -4.882,9.765 -4.882,9.765 -1.22,10.375 -12.816,13.427 -12.816,13.427 0,0 -8.748,-7.527 -10.579,-11.596 0,0 3.07,8.05 8.477,12.69 -12.848,6.198 -21.245,0.208 -24.142,-9.639 -3.051,-10.375 -26.242,-21.971 -26.242,-21.971 -99.353,-22.736 -75.915,-85.324 -75.915,-85.324 -7.625,12.04 -5.486,25.398 -3.127,33.135 0,0 0,0 0,0 v 0 c 1.228,4.029 2.516,6.535 2.516,6.535 -2.379,1.536 -4.634,3.202 -6.778,4.972 -41.313,34.09 -40.215,108.544 -40.215,108.544 0,0 -66.71,-29.149 -140.402,-24.293 33.984,3.744 53.806,15.699 53.806,15.699 -103.882,-22.54 -195.023,50.954 -195.034,50.963 0.009,-0.004 35.39,-17.195 100.443,-16.918 40.38,55.266 105.669,91.178 179.357,91.178 C 651.508,621.999 750.9,522.607 750.9,400 750.9,277.393 651.508,178.001 528.901,178.001 Z" />
    </g>
  </g>
</svg>
